<svg data-v-0dd9719b="" version="1.0" xmlns="http://www.w3.org/2000/svg" xmlns:xlink="http://www.w3.org/1999/xlink" width="100%" height="100%" viewBox="0 0 340.000000 250.000000" preserveAspectRatio="xMidYMid meet" color-interpolation-filters="sRGB" style="margin: auto;"> <rect data-v-0dd9719b="" x="0" y="0" width="100%" height="100%" fill="#fff" fill-opacity="1" class="background"></rect> <rect data-v-0dd9719b="" x="0" y="0" width="100%" height="100%" fill="url(#watermark)" fill-opacity="1" class="watermarklayer"></rect> <g data-v-0dd9719b="" fill="#333" class="icon-text-wrapper icon-svg-group iconsvg" transform="translate(47.464996337890625,87.9400863647461)"><g class="iconsvg-imagesvg" transform="translate(0,0)"><g><rect fill="#333" fill-opacity="0" stroke-width="2" x="0" y="0" width="60" height="74.11982705373687" class="image-rect"></rect> <svg x="0" y="0" width="60" height="74.11982705373687" filtersec="colorsb8547465602" class="image-svg-svg primary" style="overflow: visible;"><svg xmlns="http://www.w3.org/2000/svg" viewBox="0 0 80.94999694824219 100"><title>资源 154</title><path fill="#333" d="M0 57.14L61.91 100l19.04-9.52V4.76L76.19 0v80.95L30.95 48.81l25-13.1v29.24l2.38 1.72v-38.1L0 57.14z"></path><path fill="#4545c4" d="M0 54.76V38.09l73.81-36.9v76.19l-13.1-9.52V23.81L0 54.76z"></path></svg></svg> <!----></g></g> <g transform="translate(67,7.698663711547852)"><g data-gra="path-name" fill-rule="" class="tp-name iconsvg-namesvg" transform="translate(0,0)"><g transform="scale(1)"><g><path d="M20.04-37.27L20.04-37.27Q24.61-35.68 24.61-35.51L24.61-35.51Q24.61-35.33 23.73-34.45L23.73-34.45Q23.2-33.93 23.2-33.93L23.2-33.93 23.03-29.71 36.39-29.71 38.67-32.34 42.54-29 42.54-28.65 22.85-28.65 22.68-22.85 34.45-22.85Q34.63-22.85 35.33-23.91L35.33-23.91Q36.04-24.79 36.04-24.79L36.04-24.79Q38.32-23.2 39.73-21.8L39.73-21.8Q39.73-21.8 38.85-21.09L38.85-21.09Q37.97-20.39 37.97-20.21L37.97-20.21Q37.97-14.24 38.14-6.33L38.14-6.33Q38.14 1.76 37.97 2.29L37.97 2.29Q37.27 4.22 33.22 5.45L33.22 5.45Q33.22 5.45 33.05 5.27L33.05 5.27Q32.87 2.81 28.13 1.23L28.13 1.23 28.13 0.7Q34.8 1.58 35.16 1.05L35.16 1.05Q35.68-2.99 35.16-21.8L35.16-21.8 27.07-21.8Q29.88-19.69 29.71-19.51L29.71-19.51Q29.71-19.34 29.18-19.16L29.18-19.16Q28.48-18.98 27.77-18.28L27.77-18.28Q26.72-16.88 24.26-14.24L24.26-14.24Q23.73-13.54 23.38-13.18L23.38-13.18 28.13-13.18 29.88-15.29 33.4-12.48 33.22-12.13 22.68-12.13 22.68-6.86 28.3-6.86 30.41-8.96 33.4-5.98 33.22-5.8 22.68-5.8 22.68 3.16Q21.97 3.87 20.04 4.22L20.04 4.22 20.04-5.8 13.01-5.8 11.25-5.45 10.2-6.86 20.04-6.86 20.04-12.13 13.18-12.13 11.43-11.95 10.55-13.18 17.4-13.18Q17.23-13.36 17.05-14.24L17.05-14.24Q16.7-17.93 13.71-20.21L13.71-20.21 14.24-20.74Q19.51-17.75 20.04-15.64L20.04-15.64Q20.04-14.41 18.81-13.18L18.81-13.18 22.32-13.18Q24.79-17.4 26.54-21.8L26.54-21.8 10.37-21.8Q8.26-22.15 8.61-19.86L8.61-19.86Q8.61-18.81 8.26 4.04L8.26 4.04Q6.5 5.1 5.1 5.27L5.1 5.27Q5.8-8.44 5.8-24.43L5.8-24.43 9.14-22.85 19.69-22.85 20.04-28.65 3.52-28.65 1.76-28.3 0.7-29.71 20.04-29.71Q20.21-35.51 20.04-37.27ZM63.28-36.21L63.46-36.56Q68.73-35.16 69.43-33.57L69.43-33.57Q70.14-31.99 68.55-29.88L68.55-29.88 81.39-29.88 83.5-32.7 87.71-29.18 87.71-28.83 49.75-28.83 47.81-28.48 46.93-29.88 66.8-29.88Q66.45-33.22 63.28-36.21L63.28-36.21ZM76.99-25.31L76.99-25.31Q79.1-23.73 80.51-22.15L80.51-22.15Q80.51-22.15 79.8-21.8L79.8-21.8Q78.75-21.27 78.75-21.09L78.75-21.09 78.93-11.95Q78.05-11.07 76.11-10.72L76.11-10.72 76.11-12.66 68.91-12.66Q69.08 1.76 68.91 2.11L68.91 2.11Q67.85 4.39 64.34 4.92L64.34 4.92Q64.86 1.58 58.36 0.35L58.36 0.35 58.54-0.18Q65.21 0.88 66.09 0.35L66.09 0.35Q66.27-0.7 66.27-12.66L66.27-12.66 57.66-12.66 57.66-11.6Q56.43-10.55 54.84-10.55L54.84-10.55Q55.2-18.98 55.37-24.96L55.37-24.96Q55.55-24.96 58.36-23.38L58.36-23.38 75.41-23.38Q76.82-25.31 76.99-25.31ZM76.11-13.71L76.11-22.32 59.41-22.32Q57.48-22.68 57.66-20.39L57.66-20.39 57.66-13.71 76.11-13.71ZM58.54-9.32L58.54-9.32Q62.23-7.03 62.05-6.86L62.05-6.86Q62.05-6.68 61.52-6.68L61.52-6.68Q60.47-6.68 59.59-5.8L59.59-5.8Q51.86 0.7 46.05 3.34L46.05 3.34 45.88 2.81Q54.14-2.64 58.54-9.32ZM73.3-7.73L73.48-8.26Q80.86-5.63 83.67-2.81L83.67-2.81Q85.61 0.35 82.44 1.93L82.44 1.93Q82.09 1.93 81.56 0.7L81.56 0.7Q79.1-4.39 73.3-7.73L73.3-7.73ZM107.93-36.56L108.11-37.09Q111.97-36.56 113.2-35.68L113.2-35.68Q114.61-34.1 112.85-32.7L112.85-32.7 127.27-32.7 129.55-35.16 132.89-31.99 132.71-31.82 101.6-31.82 101.6-28.83 121.99-28.83 124.1-30.94 127.09-27.95 126.91-27.95 101.78-27.95Q101.6-27.95 100.9-27.25L100.9-27.25Q100.55-26.89 100.55-26.89L100.55-26.89 98.26-28.65Q98.44-28.83 98.79-29.18L98.79-29.18Q99.14-29.36 99.14-29.36L99.14-29.36 99.14-31.82 95.45-31.82 93.34-31.11 92.11-32.7 111.09-32.7Q110.21-35.51 107.93-36.56L107.93-36.56ZM122.87-26.89L122.87-26.89 126.04-24.61Q126.04-24.61 125.68-24.43L125.68-24.43Q124.63-23.55 124.63-23.38L124.63-23.38 124.63-20.04Q124.28-19.16 122.34-18.98L122.34-18.98 122.34-20.39 101.6-20.39 101.6-19.34Q100.9-18.63 99.14-18.46L99.14-18.46 99.14-26.37 101.95-25.14 121.64-25.14Q121.82-25.14 122.52-26.19L122.52-26.19Q122.87-26.89 122.87-26.89ZM122.34-21.27L122.34-24.26 102.48-24.26Q101.6-24.26 101.6-23.38L101.6-23.38 101.6-21.27 122.34-21.27ZM101.78-16.7L103.01-18.28 105.64-16.17Q105.64-15.82 105.29-15.47L105.29-15.47Q104.77-15.12 104.59-14.77L104.59-14.77Q104.59-14.41 104.59-12.66L104.59-12.66Q104.77 1.23 104.41 1.93L104.41 1.93Q103.18 4.39 101.07 4.75L101.07 4.75Q100.9 2.46 97.21 1.76L97.21 1.76 97.38 1.23Q100.72 1.41 101.07 1.41L101.07 1.41Q102.3 1.41 102.3 0.35L102.3 0.35Q102.3 0.18 102.3-5.27L102.3-5.27 97.38-5.27Q96.33 1.58 90.7 5.45L90.7 5.45 90.35 5.1Q94.04 1.05 94.92-3.52L94.92-3.52Q95.45-5.8 95.63-8.96L95.63-8.96Q95.63-11.6 95.45-18.11L95.45-18.11 97.91-16.7 101.78-16.7ZM127.09-18.28L127.09-18.28 129.73-15.82Q129.73-15.82 129.02-15.29L129.02-15.29Q128.32-14.94 128.32-14.77L128.32-14.77Q128.32-11.78 128.14-6.15L128.14-6.15Q128.14-1.76 128.14 0L128.14 0Q128.14 1.41 130.43 0.88L130.43 0.88Q131.31 0.7 131.31-1.05L131.31-1.05Q131.31-2.29 131.66-5.45L131.66-5.45 132.36-5.27Q132.01-0.35 133.59 0.7L133.59 0.7Q133.95 0.88 133.95 0.88L133.95 0.88Q133.77 2.29 131.66 3.16L131.66 3.16Q128.85 3.87 127.44 2.99L127.44 2.99Q126.21 2.11 126.04 0.53L126.04 0.53Q125.68-0.53 126.04-6.33L126.04-6.33Q124.45-4.92 123.57-7.38L123.57-7.38Q122.87-9.84 121.64-10.37L121.64-10.37Q122.52 1.58 113.55 5.45L113.55 5.45 113.2 4.92Q114.96 3.87 116.37 2.29L116.37 2.29Q115.84 2.29 114.96 0.7L114.96 0.7Q113.55-2.11 111.97-2.99L111.97-2.99Q110.21 1.76 104.41 4.57L104.41 4.57 104.06 4.22Q107.4 2.11 109.34-1.23L109.34-1.23Q110.92-3.87 110.57-13.54L110.57-13.54 113.73-12.48Q113.73-12.48 113.55-12.3L113.55-12.3Q112.68-11.78 112.68-11.25L112.68-11.25Q112.68-8.79 112.15-3.87L112.15-3.87Q117.25-1.76 117.6 0.7L117.6 0.7Q120.06-2.64 119.53-18.11L119.53-18.11 122.34-16.7 125.68-16.7Q125.86-16.7 126.39-17.58L126.39-17.58Q127.09-18.28 127.09-18.28ZM106.52-2.46L106.88-18.11 108.98-16.88 114.61-16.88Q114.61-16.88 115.14-17.4L115.14-17.4Q115.84-18.11 116.02-18.11L116.02-18.11 118.3-16Q118.3-16 117.77-15.47L117.77-15.47Q117.07-15.12 117.07-14.94L117.07-14.94 117.07-4.75Q116.54-4.04 114.96-3.87L114.96-3.87 115.14-16 110.04-16Q108.63-16 108.63-14.94L108.63-14.94 108.63-3.69Q107.93-2.81 106.52-2.46L106.52-2.46ZM102.3-11.43L102.3-15.82 98.79-15.82Q97.56-15.82 97.56-14.77L97.56-14.77 97.56-11.43 102.3-11.43ZM126.04-7.73L126.04-15.82 122.7-15.82Q121.64-15.82 121.64-14.59L121.64-14.59Q121.64-13.71 121.64-11.25L121.64-11.25Q124.98-9.84 126.04-7.73L126.04-7.73ZM102.3-6.15L102.3-10.55 97.56-10.55 97.56-6.15 102.3-6.15ZM147.13-37.79L147.13-37.79Q152.23-34.8 151.52-34.63L151.52-34.63Q151.52-34.63 151.17-34.63L151.17-34.63Q149.94-34.63 149.41-33.4L149.41-33.4Q147.83-29.71 145.37-24.61L145.37-24.61Q145.55-24.43 145.9-24.26L145.9-24.26Q148.18-22.85 148.18-22.32L148.18-22.32Q148.18-22.15 147.66-22.15L147.66-22.15Q146.78-21.97 146.78-21.62L146.78-21.62Q146.6-3.52 146.6 4.04L146.6 4.04Q145.55 5.63 143.44 5.98L143.44 5.98 144.14-21.8Q140.45-15.64 135.88-10.9L135.88-10.9 135.35-11.43Q143.79-22.5 147.13-37.79ZM169.8-33.57L169.8-33.57Q172.27-32.34 173.67-30.41L173.67-30.41Q173.5-30.23 173.14-30.23L173.14-30.23Q171.39-30.06 170.51-28.65L170.51-28.65Q160.14-13.89 158.55-11.78L158.55-11.78Q150.82 0.53 158.2 0.53L158.2 0.53Q161.54 0.7 166.29 0.7L166.29 0.7Q171.21 0.7 172.44 0.35L172.44 0.35Q174.73 0 175.25-1.58L175.25-1.58Q175.78-2.81 176.13-9.32L176.13-9.32 176.66-9.32Q176.48-0.53 178.77-0.53L178.77-0.53Q177.89 2.99 174.2 3.16L174.2 3.16Q171.04 3.34 160.49 3.34L160.49 3.34Q148.36 3.52 152.93-7.03L152.93-7.03Q154.34-10.37 162.6-22.15L162.6-22.15Q166.82-27.95 168.22-30.23L168.22-30.23 154.16-30.23 152.4-29.88 151.35-31.29 167.7-31.29Q168.05-31.29 168.93-32.52L168.93-32.52Q169.63-33.57 169.8-33.57Z" transform="translate(-0.699999988079071, 37.790000915527344)"></path></g> <!----> <!----> <!----> <!----> <!----> <!----> <!----></g></g> <g data-gra="path-slogan" fill-rule="" class="tp-slogan iconsvg-slogansvg" fill="#333" transform="translate(5,49.77000045776367)"><rect x="0" height="1" y="3.9750003814697266" width="9.645004272460938"></rect> <rect height="1" y="3.9750003814697266" width="9.645004272460938" x="158.4250030517578"></rect> <g transform="translate(12.645004272460938,0)"><g transform="scale(1)"><path d="M2.30-8.58L6.61-1.64L6.61-8.58L7.73-8.58L7.73 0L6.42 0L2.06-6.94L2.02-6.94L2.02 0L0.89 0L0.89-8.58L2.30-8.58ZM15.19 0L14.34-2.48L10.88-2.48L9.98 0L8.81 0L12.05-8.58L13.36-8.58L16.45 0L15.19 0ZM12.61-7.31L11.25-3.52L13.92-3.52L12.66-7.31L12.61-7.31ZM18.89-8.58L23.20-1.64L23.20-8.58L24.33-8.58L24.33 0L23.02 0L18.66-6.94L18.61-6.94L18.61 0L17.48 0L17.48-8.58L18.89-8.58ZM25.41-1.92L25.41-2.77L26.48-2.77L26.48-2.16Q26.48-0.75 27.80-0.75L27.80-0.75Q29.16-0.75 29.16-2.25L29.16-2.25L29.16-8.58L30.33-8.58L30.33-2.30Q30.28 0.09 27.84 0.14L27.84 0.14Q25.55 0.09 25.41-1.92L25.41-1.92ZM32.30-8.58L33.47-8.58L33.47 0L32.30 0L32.30-8.58ZM36.84-8.58L41.16-1.64L41.16-8.58L42.28-8.58L42.28 0L40.97 0L36.61-6.94L36.56-6.94L36.56 0L35.44 0L35.44-8.58L36.84-8.58ZM50.48-3.61L47.86-3.61L47.86-4.59L51.61-4.59L51.61 0L50.86 0L50.58-1.08Q49.59 0.09 47.77 0.14L47.77 0.14Q46.03 0.14 45.09-0.75L45.09-0.75Q43.69-2.06 43.73-4.36L43.73-4.36Q44.06-8.63 47.81-8.81L47.81-8.81Q51-8.63 51.47-6L51.47-6L50.34-6Q49.88-7.78 47.77-7.83L47.77-7.83Q45.09-7.64 44.95-4.31L44.95-4.31Q44.95-0.75 47.81-0.75L47.81-0.75Q48.84-0.75 49.59-1.31L49.59-1.31Q50.53-2.06 50.48-3.61L50.48-3.61ZM61.50-7.13L61.45-7.13L59.48 0L58.27 0L56.02-8.58L57.23-8.58L58.88-1.59L58.92-1.59L60.84-8.58L62.11-8.58L64.03-1.59L64.08-1.59L65.67-8.58L66.94-8.58L64.69 0L63.47 0L61.50-7.13ZM68.20-8.58L69.38-8.58L69.38 0L68.20 0L68.20-8.58ZM72.75-8.58L77.06-1.64L77.06-8.58L78.19-8.58L78.19 0L76.88 0L72.52-6.94L72.47-6.94L72.47 0L71.34 0L71.34-8.58L72.75-8.58ZM86.25-6.09L86.25-6.09L85.17-6.09Q85.08-7.73 83.02-7.83L83.02-7.83Q81.09-7.78 81.09-6.33L81.09-6.33Q81.09-5.39 82.13-5.25L82.13-5.25L84.56-4.69Q86.48-4.22 86.48-2.34L86.48-2.34Q86.44 0.05 83.11 0.14L83.11 0.14Q81.28 0.14 80.53-0.61L80.53-0.61Q79.59-1.31 79.64-2.77L79.64-2.77L80.77-2.77Q80.81-0.80 83.11-0.75L83.11-0.75Q85.36-0.80 85.41-2.20L85.41-2.20Q85.59-3.38 83.53-3.75L83.53-3.75L81.75-4.13Q79.92-4.64 79.92-6.19L79.92-6.19Q80.06-8.72 82.92-8.81L82.92-8.81Q86.16-8.81 86.25-6.09ZM94.50-7.64L92.44-7.64L92.44-4.97L94.50-4.97Q96.33-4.92 96.28-6.38L96.28-6.38Q96.28-7.64 94.50-7.64L94.50-7.64ZM94.97 0L91.27 0L91.27-8.58L95.06-8.58Q97.36-8.48 97.45-6.42L97.45-6.42Q97.45-5.16 96.33-4.64L96.33-4.64Q97.92-4.08 97.92-2.53L97.92-2.53Q97.78-0.09 94.97 0L94.97 0ZM94.69-3.98L92.44-3.98L92.44-0.98L94.92-0.98Q96.70-1.03 96.75-2.53L96.75-2.53Q96.75-3.98 94.69-3.98L94.69-3.98ZM99.42-8.58L100.59-8.58L100.59 0L99.42 0L99.42-8.58ZM102.56-8.58L103.73-8.58L103.73-1.03L108.09-1.03L108.09 0L102.56 0L102.56-8.58ZM109.22-8.58L110.39-8.58L110.39-1.03L114.75-1.03L114.75 0L109.22 0L109.22-8.58ZM116.06-8.58L117.23-8.58L117.23 0L116.06 0L116.06-8.58ZM126-4.27L126-4.27Q125.81-7.64 123-7.83L123-7.83Q120.14-7.69 120-4.27L120-4.27Q120.14-0.94 123-0.80L123-0.80Q125.81-0.98 126-4.27ZM127.17-4.27L127.17-4.27Q126.89 0 123 0.14L123 0.14Q119.06 0 118.78-4.27L118.78-4.27Q119.02-8.72 123-8.81L123-8.81Q126.89-8.67 127.17-4.27ZM129.94-8.58L134.25-1.64L134.25-8.58L135.38-8.58L135.38 0L134.06 0L129.70-6.94L129.66-6.94L129.66 0L128.53 0L128.53-8.58L129.94-8.58ZM143.44-6.09L143.44-6.09L142.36-6.09Q142.27-7.73 140.20-7.83L140.20-7.83Q138.28-7.78 138.28-6.33L138.28-6.33Q138.28-5.39 139.31-5.25L139.31-5.25L141.75-4.69Q143.67-4.22 143.67-2.34L143.67-2.34Q143.63 0.05 140.30 0.14L140.30 0.14Q138.47 0.14 137.72-0.61L137.72-0.61Q136.78-1.31 136.83-2.77L136.83-2.77L137.95-2.77Q138-0.80 140.30-0.75L140.30-0.75Q142.55-0.80 142.59-2.20L142.59-2.20Q142.78-3.38 140.72-3.75L140.72-3.75L138.94-4.13Q137.11-4.64 137.11-6.19L137.11-6.19Q137.25-8.72 140.11-8.81L140.11-8.81Q143.34-8.81 143.44-6.09Z" transform="translate(-0.890625, 8.8125)"></path></g></g></g></g></g><defs v-gra="od"></defs></svg>